<?xml version="1.0" standalone="no"?>
<!DOCTYPE svg PUBLIC "-//W3C//DTD SVG 1.1//EN" "http://www.w3.org/Graphics/SVG/1.1/DTD/svg11.dtd" >
<svg xmlns="http://www.w3.org/2000/svg">
<metadata>Generated by IcoMoon</metadata>
<defs>
<font id="Sonarfonticons" horiz-adv-x="512">
<font-face units-per-em="512" ascent="480" descent="-32" />
<missing-glyph horiz-adv-x="512" />
<glyph unicode="&#x20;" d="" horiz-adv-x="256" />
<glyph unicode="&#x61;" d="M396.688 165.775c-28.175 0-52.988-14.025-68.175-35.375l-145.625 72.825c2.588 8.050 4.35 16.475 4.35 25.4 0 9.7-1.975 18.85-5 27.5l154.1 82.2c15.25-15.9 36.587-25.9 60.35-25.9 46.262 0 83.775 37.525 83.775 83.775s-37.512 83.775-83.775 83.775-83.775-37.525-83.775-83.775c0-13.2 3.337-25.55 8.788-36.65l-151.475-80.8c-15.287 20.325-39.388 33.65-66.775 33.65-46.275 0-83.787-37.5-83.787-83.775s37.513-83.775 83.787-83.775c28.188 0 53 14.025 68.188 35.375l145.625-72.825c-2.587-8.050-4.35-16.475-4.35-25.4 0-46.25 37.512-83.775 83.775-83.775s83.775 37.525 83.775 83.775-37.512 83.775-83.775 83.775z" />
<glyph unicode="&#x62;" d="M88.050 13.375l114.888 114.875c28.95-18.675 63.35-29.675 100.3-29.675 102.325 0 185.55 83.275 185.55 185.55 0 102.35-83.225 185.575-185.55 185.55-102.325 0.025-185.588-83.2-185.575-185.55 0-36.95 10.988-71.3 29.688-100.3l-114.862-114.875c-3.825-3.825-3.875-10.075 0-13.9l41.65-41.675c3.787-3.825 10.075-3.825 13.912 0zM303.238 410.775c69.838 0 126.625-56.825 126.625-126.65 0-69.8-56.788-126.6-126.625-126.6-69.8 0-126.613 56.8-126.613 126.6 0 69.825 56.813 126.65 126.613 126.65z" />
<glyph unicode="&#x63;" d="M321.063 174.15h76.8v-76.8h-76.8v76.8zM116.263 174.15h76.8v-76.8h-76.8v76.8zM218.662 174.15h76.8v-76.8h-76.8v76.8zM321.063 276.55h76.8v-76.8h-76.8v76.8zM116.263 276.55h76.8v-76.8h-76.8v76.8zM218.662 276.55h76.8v-76.8h-76.8v76.8zM321.063 378.95h76.8v-76.8h-76.8v76.8zM116.263 378.95h76.8v-76.8h-76.8v76.8zM218.662 378.95h76.8v-76.8h-76.8v76.8z" />
<glyph unicode="&#x64;" d="M307.063-4.050l-61.4 236.325-50.237-148.85h-167.463l130.25 37.2 91.175 344.225 68.863-318.175 50.225 156.3 35.363-182.35 89.3-37.2h-106.063l-16.725 48.375z" />
<glyph unicode="&#x65;" d="M257.063 411.025c-127.65 0-231.162-72.050-231.162-160.9 0-41.55 22.638-79.4 59.875-107.975l-22.125-92.325c-1.35-5.075 1.35-7.225 5.912-4.8l93.95 57.975c28.625-8.825 60.25-13.75 93.55-13.75 127.663 0 231.163 72.025 231.163 160.875s-103.5 160.9-231.163 160.9zM146.988 220.15c-18.262 0-33.025 14.775-33.025 33.025s14.762 33.025 33.025 33.025c18.25 0 33.025-14.775 33.025-33.025s-14.775-33.025-33.025-33.025zM257.063 220.15c-18.25 0-33.025 14.775-33.025 33.025s14.775 33.025 33.025 33.025 33.025-14.775 33.025-33.025-14.775-33.025-33.025-33.025zM367.137 220.15c-18.25 0-33.025 14.775-33.025 33.025s14.775 33.025 33.025 33.025 33.025-14.775 33.025-33.025-14.775-33.025-33.025-33.025z" />
<glyph unicode="&#x66;" d="M34.325 326.825v-308.45c0-10.65 8.663-19.325 19.275-19.325h404.8c10.575 0 19.275 8.675 19.275 19.325v308.45h-443.35zM130.675 37.6h-57.8v57.875h57.8v-57.875zM130.675 114.725h-57.8v57.875h57.8v-57.875zM130.675 191.825h-57.8v57.875h57.8v-57.875zM207.787 37.6h-57.787v57.875h57.787v-57.875zM207.787 114.725h-57.787v57.875h57.787v-57.875zM207.787 191.825h-57.787v57.875h57.787v-57.875zM284.9 37.6h-57.8v57.875h57.8v-57.875zM284.9 114.725h-57.8v57.875h57.8v-57.875zM284.9 191.825h-57.8v57.875h57.8v-57.875zM362.012 37.6h-57.8v57.875h57.8v-57.875zM362.012 114.725h-57.8v57.875h57.8v-57.875zM362.012 191.825h-57.8v57.875h57.8v-57.875zM439.125 37.6h-57.8v57.875h57.8v-57.875zM439.125 114.725h-57.8v57.875h57.8v-57.875zM439.125 191.825h-57.8v57.875h57.8v-57.875zM477.675 403.9v-57.85h-443.35v57.85c0 10.575 8.663 19.275 19.275 19.275h38.512v19.225c0 10.65 8.713 19.325 19.325 19.325h19.237c10.613 0 19.325-8.675 19.325-19.325v-19.225h212.012v19.225c0 10.65 8.65 19.325 19.313 19.325h19.238c10.625 0 19.325-8.675 19.325-19.325v-19.225h38.512c10.575 0 19.275-8.7 19.275-19.275z" />
<glyph unicode="&#x67;" d="M309.387 287.425c0-11.4-9.35-20.75-20.75-20.75h-41.4c-11.4 0-20.7 9.35-20.7 20.75v165.75c0 11.4 9.3 20.725 20.7 20.725h41.4c11.4 0 20.75-9.325 20.75-20.725v-165.75zM377.587 392.3c-12.15 7.1-26.75 10.050-26.75-6.8 0-9.4 0-27.1 0-38.050 0-14.775 9.85-18.325 14.45-22.1 35.35-28.4 58.050-72 58.050-120.85 0-85.725-69.75-155.425-155.4-155.425-85.7 0-155.4 69.7-155.4 155.425 0 49.1 22.95 92.8 58.65 121.35 4.4 3.55 13.85 4.95 13.85 21.825 0 10.6 0 26.025 0 36.525 0 17.5-12.6 17.2-28.45 7.1-63.55-38.025-106.25-107.5-106.25-186.8 0-120.025 97.6-217.6 217.6-217.6s217.6 97.575 217.6 217.6c0 80.025-43.45 150.025-107.95 187.8z" />
<glyph unicode="&#x68;" d="M141.863 378.95h76.8v-281.6h-76.8v281.6zM295.462 378.95h76.8v-281.6h-76.8v281.6z" />
<glyph unicode="&#x69;" d="M65.063 243.575v211.525l422.113-211.525-422.113-211.625z" />
<glyph unicode="&#x6a;" d="M256 464.457c-129.257 0-234.057-104.8-234.057-234.057 0-129.286 104.8-234.057 234.057-234.057 129.272 0 234.057 104.772 234.057 234.057 0 129.257-104.786 234.057-234.057 234.057zM187.014 324.2c2.343 3.771 6.857 5.285 6.857 5.285l46.1 17.115c1.971 0.286 4.007 2.457 10.886-1.685 4.386-2.657 5.371-12.4 5.371-12.4l0.443-79.057c0 0-1.043-9.514-7.572-11.114-6.029-1.486-10.757 3.4-10.757 3.4l-47.915 65.314c0 0-6.779 7.829-3.415 13.143zM162.614 189.2c-1.786 3.143-1.3 10-1.3 10l3.228 39.743c0.228 2.571 2.65 5.514 5.386 7.114 3.557 2.114 10.9-0.915 10.9-0.915l49.557-25.029c0 0 7.486-3.657 7.328-9.772-0.228-8.057-4.172-8.2-6.415-9.714l-57.843-12.772c0 0-8.315-3.115-10.843 1.343zM251.815 113.857c-3.571-1.057-8.286-0.057-8.286-0.057l-38.9 12.286c-2.714 1.315-4.629 3.171-5.786 6.914-1.228 4 3.6 10.543 3.6 10.543l38.743 42.628c0 0 5.943 5.286 10.915 2.743 4.543-2.372 4.743-7.914 4.743-7.914l-0.886-57.743c0 0 0.929-7.943-4.143-9.4zM275.471 232.457l31.385 49.371c0 0 3.228 6.372 8.5 5.915 4.772-0.4 7.072-4.343 7.072-4.343l26.529-31.257c0 0 2.307-4.971 1.257-9.057-1.086-4.114-8.664-7.2-8.664-7.2l-55.522-16.229c0 0-7.857-1.4-10.7 3.428-2.628 4.457 0.143 9.372 0.143 9.372zM348.343 167.743l-23.514-33.6c0 0-4.2-3.514-8.443-3.514-4.228 0-9.115 6.572-9.115 6.572l-29.736 49.628c0 0-3.336 7.257 0.607 11.228 3.635 3.685 9.086 2.228 9.086 2.228l55.657-17.885c0 0 7.957-1.428 7.872-6.714-0.057-3.714-2.414-7.943-2.414-7.943z" />
<glyph unicode="&#x6c;" d="M388.488 320.725c-12.538 0-24.55-2.050-35.875-5.7-23.012 50.95-74.137 86.45-133.7 86.45-81.037 0-146.787-65.75-146.787-146.8 0-5.025 0.263-10.025 0.737-14.95-34.462-7.525-60.275-36.775-60.275-73.475 0-42.3 34.362-75.3 76.688-75.3h299.212c64.012 0 115.963 50.65 115.963 114.9 0 64.2-51.95 114.875-115.962 114.875z" />
<glyph unicode="&#x6d;" d="M488.038 100.575c0-5.325-4.35-9.675-9.675-9.675h-446.462c-5.313 0-9.675 4.35-9.675 9.675v38.825c0 5.375 4.363 9.7 9.675 9.7h446.462c5.325 0 9.675-4.325 9.675-9.7v-38.825zM488.038 230.3c0 5.35-4.35 9.7-9.675 9.7h-446.462c-5.313 0-9.675-4.35-9.675-9.7v-38.85c0-5.35 4.363-9.7 9.675-9.7h446.462c5.325 0 9.675 4.35 9.675 9.7v38.85zM488.038 329.15c0 5.35-4.35 9.7-9.675 9.7h-446.462c-5.313 0-9.675-4.35-9.675-9.7v-38.825c0-5.35 4.363-9.7 9.675-9.7h446.462c5.325 0 9.675 4.35 9.675 9.7v38.825z" />
<glyph unicode="&#x6e;" d="M267.938 465.9c-78.213 0-140.787-62.575-140.787-140.8 0-21.475 9.775-48.875 9.775-48.875 37.162-95.8 127.088-273.75 127.088-273.75 1.975-1.95 1.975-3.9 3.925-3.9 1.962 0 3.913 1.95 3.913 3.9 0 0 89.938 177.95 127.088 273.75 0 0 9.788 27.4 9.788 48.875 0 76.275-62.587 140.8-140.788 140.8zM267.938 258.625c-35.188 0-64.525 29.325-64.525 64.525s29.338 64.525 64.525 64.525 64.525-29.325 64.525-64.525-29.337-64.525-64.525-64.525z" />
<glyph unicode="&#x6f;" d="M43.038 385.3h19.363v-309.8h-19.362c-11.6 0-19.35 7.775-19.35 19.375v271.025c0 11.625 7.75 19.4 19.35 19.4zM468.962 385.3h-19.363v-309.8h19.363c11.625 0 19.35 7.775 19.35 19.375v271.025c0 11.625-9.675 19.4-19.35 19.4zM410.875 404.65h-309.75c-9.688 0-19.362-9.7-19.362-19.35v-309.8c0-9.65 9.675-19.35 19.362-19.35h309.75c9.688 0 19.363 9.7 19.363 19.35v309.8c0 9.65-9.675 19.35-19.363 19.35zM352.8 172.3c0-29.025-38.725-32.9-44.512-32.9-15.488 0-29.050 7.75-34.863 19.375-5.788 17.425 9.675 34.85 30.975 42.575 11.637 3.9 27.113 3.9 27.113 1.925v85.225l-116.162-27.125c0 0 0-75.5 0-110.35s-40.662-40.65-46.475-40.65c-15.488 0-27.088 7.725-30.963 19.35-5.8 15.5 7.725 34.85 30.963 42.575 11.637 3.9 27.125 1.925 27.125 1.925v127.8c0 3.9 1.925 9.7 5.787 9.7l145.213 36.75c3.875 0 5.8-3.85 5.8-7.725 0 1.925 0-139.4 0-168.45z" />
<glyph unicode="&#x70;" d="M256 464.457c-129.257 0-234.057-104.8-234.057-234.057 0-129.286 104.8-234.057 234.057-234.057 129.272 0 234.057 104.772 234.057 234.057 0 129.257-104.786 234.057-234.057 234.057zM306.143 230.314h-32.8c0-52.4 0-116.943 0-116.943h-48.6c0 0 0 63.885 0 116.943h-23.114v41.315h23.114v26.743c0 19.143 9.085 49.057 49.043 49.057l36-0.143v-40.114c0 0-21.893 0-26.135 0-4.25 0-10.307-2.115-10.307-11.257v-24.285h37.057l-4.257-41.315z" />
<glyph unicode="&#x71;" d="M256 464.457c-129.25 0-234.057-104.8-234.057-234.057 0-129.286 104.807-234.057 234.057-234.057 129.257 0 234.057 104.772 234.057 234.057 0 129.257-104.8 234.057-234.057 234.057zM349.079 278.115c0.1-2.057 0.143-4.115 0.143-6.2 0-63.457-48.3-136.629-136.629-136.629-27.129 0-52.357 7.943-73.621 21.572 3.779-0.428 7.593-0.657 11.464-0.657 22.514 0 43.2 7.657 59.629 20.543-21 0.4-38.743 14.286-44.85 33.343 2.935-0.543 5.935-0.857 9.036-0.857 4.386 0 8.629 0.6 12.643 1.685-21.943 4.428-38.514 23.829-38.514 47.086 0 0.2 0 0.4 0 0.6 6.478-3.6 13.886-5.743 21.757-6-12.893 8.6-21.357 23.314-21.357 39.972 0 8.8 2.371 17.057 6.5 24.143 23.672-29.057 59.072-48.171 98.971-50.171-0.815 3.514-1.243 7.171-1.243 10.943 0 26.514 21.5 48 48.029 48 13.8 0 26.279-5.828 35.043-15.143 10.928 2.143 21.214 6.143 30.5 11.657-3.6-11.228-11.207-20.629-21.115-26.572 9.714 1.143 18.971 3.743 27.565 7.543-6.421-9.628-14.565-18.085-23.95-24.857z" />
<glyph unicode="&#x72;" d="M270.029 247.6v0.486c-0.086-0.172-0.221-0.343-0.329-0.486h0.329zM256 464.457c-129.272 0-234.057-104.8-234.057-234.057 0-129.286 104.785-234.057 234.057-234.057 129.257 0 234.057 104.772 234.057 234.057 0 129.257-104.8 234.057-234.057 234.057zM192.114 118.543h-50.185v150.915h50.185v-150.915zM167.014 290.086h-0.328c-16.828 0-27.715 11.6-27.715 26.085 0 14.8 11.228 26.085 28.371 26.085 17.165 0 27.743-11.285 28.057-26.085 0-14.486-10.893-26.085-28.386-26.085zM373.029 118.543h-50.178v80.743c0 20.286-7.25 34.143-25.421 34.143-13.843 0-22.122-9.371-25.75-18.372-1.322-3.228-1.65-7.685-1.65-12.228v-84.286h-50.165c0 0 0.65 136.772 0 150.915h50.165v-21.371c6.685 10.314 18.6 24.915 45.228 24.915 33 0 57.772-21.543 57.772-67.915v-86.543z" />
<glyph unicode="&#x73;" d="M256 464.457c-129.272 0-234.057-104.8-234.057-234.057 0-129.286 104.785-234.057 234.057-234.057s234.057 104.772 234.057 234.057c0 129.257-104.786 234.057-234.057 234.057zM170.5 113.628c-17.157 0-31.057 13.914-31.057 31.086s13.9 31.057 31.057 31.057c17.172 0 31.085-13.885 31.085-31.057s-13.915-31.086-31.085-31.086zM248.471 113.428c0 29.315-11.357 56.857-31.957 77.543-20.557 20.685-47.928 32.057-77.043 32.057v44.857c84.829 0 153.857-69.286 153.857-154.457h-44.857zM327.7 113.371c0 104.315-84.4 189.2-188.157 189.2v44.857c128.486 0 233.015-105 233.015-234.057h-44.857z" />
<glyph unicode="&#x74;" d="M208.471 336.2c-18.585 0.543-31.072-18.143-27.843-42.543 3.2-24.428 20.871-41.486 39.465-42.057 18.593-0.543 29.272 15.172 26.078 39.6-3.2 24.4-19.114 44.429-37.7 45zM216.286 201.628c-27.714 0.315-51.185-17.486-51.185-38.143 0-21.057 20.014-38.6 47.707-38.6 38.964 0 52.536 16.457 52.536 37.543 0 2.543-0.315 5.029-0.885 7.428-3.057 11.914-15.172 18.457-30.228 28.914-5.457 1.772-11.486 2.8-17.943 2.857zM256 464.457c-129.257 0-234.057-104.8-234.057-234.057 0-129.286 104.8-234.057 234.057-234.057 129.264 0 234.057 104.772 234.057 234.057 0 129.257-104.793 234.057-234.057 234.057zM273.885 292.228c0-15.257-8.443-27.543-20.371-36.857-11.657-9.114-13.857-12.915-13.857-20.657 0-6.6 13.915-16.429 20.315-21.229 22.272-16.714 26.786-27.228 26.786-48.115 0-26.086-28.1-52-73.786-52-40.085 0-73.921 16.286-73.921 42.372 0 26.457 28.057 54.057 68.15 54.057 4.364 0 8.371 0.115 12.514 0.115-5.486 5.315-9.915 9.914-9.915 17.972 0 4.8 1.514 9.371 3.657 13.457-2.172-0.143-4.4-0.286-6.685-0.286-32.929 0-52.1 23.143-52.1 52.143 0 28.4 29.185 54.228 64.185 54.228 18.043 0 68.986 0 68.986 0l-15.414-16.2h-18.114c12.785-7.315 19.571-22.372 19.571-39zM372.943 296.486h-31.829v-31.8h-15.914v31.8h-31.815v15.914h31.815v31.829h15.914v-31.829h31.829v-15.914z" />
<glyph unicode="&#x75;" d="M256 464.457c-129.257 0-234.057-104.8-234.057-234.057 0-129.286 104.8-234.057 234.057-234.057s234.057 104.772 234.057 234.057c0 129.257-104.8 234.057-234.057 234.057zM280.171 178.285c-14.522 0-28.172 7.829-32.85 16.743 0 0-7.807-30.971-9.45-36.943-5.828-21.143-22.957-42.286-24.272-44-0.929-1.2-2.986-0.829-3.2 0.772-0.371 2.685-4.743 29.343 0.393 51.086 2.593 10.914 17.307 73.257 17.307 73.257s-4.3 8.572-4.3 21.257c0 19.943 11.557 34.8 25.943 34.8 12.221 0 18.115-9.172 18.115-20.172 0-12.286-7.815-30.685-11.857-47.715-3.371-14.257 7.143-25.886 21.207-25.886 25.478 0 42.635 32.715 42.635 71.486 0 29.457-19.843 51.514-55.943 51.514-40.772 0-66.185-30.428-66.185-64.4 0-11.714 3.457-19.971 8.871-26.343 2.486-2.943 2.828-4.143 1.929-7.514-0.657-2.457-2.114-8.429-2.743-10.772-0.886-3.428-3.657-4.628-6.728-3.372-18.786 7.657-27.529 28.229-27.529 51.372 0 38.172 32.2 83.971 96.086 83.971 51.329 0 85.115-37.143 85.115-77.029 0-52.714-29.329-92.115-72.543-92.115z" />
<glyph unicode="&#x76;" d="M181.657 163.6l-0.014 0.057h-0.014zM250.457 263.2c-17.286 30.743-35.772 55.8-37.114 57.572-27.857-13.143-48.657-38.829-55.15-69.772 2.636-0.057 44.293-0.543 92.264 12.2zM322 305.4c-17.6 15.514-40.721 24.943-66 24.943-8.114 0-16-1-23.543-2.829 1.486-1.971 20.257-26.914 37.343-58.314 37.707 14.143 51.943 35.8 52.2 36.2zM232.057 327.428c-0.121-0.029-0.228-0.057-0.315-0.085 0.165 0.029 0.286 0.057 0.286 0.057l0.029 0.029zM262.914 229.629c1.307 0.4 2.6 0.8 3.943 1.172-2.514 5.685-5.257 11.4-8.122 17-51.45-15.4-100.822-14.286-102.593-14.257-0.029-1.029-0.085-2.085-0.085-3.143 0-25.657 9.685-49.057 25.571-66.743 0.029 0.057 27.386 48.543 81.286 65.972zM273 214.028c-58.114-20.228-77.635-60.714-78.371-62.286 16.957-13.228 38.185-21.286 61.371-21.286 13.829 0 27.029 2.8 39 7.914-1.457 8.743-7.286 39.343-21.343 75.885-0.228-0.086-0.428-0.143-0.657-0.228zM194.571 151.6l0.057 0.143c-0.728 0.6-1.571 1.029-2.286 1.6 1.315-1.057 2.228-1.743 2.228-1.743zM277.486 254.315c2.343-4.743 4.572-9.6 6.657-14.486 0.743-1.743 1.457-3.457 2.143-5.172 34.343 4.315 68.164-2.943 69.629-3.257-0.264 23.714-8.714 45.457-22.743 62.485-0.171-0.285-16.2-23.457-55.685-39.571zM256 464.457c-129.272 0-234.057-104.8-234.057-234.057 0-129.286 104.785-234.057 234.057-234.057 129.257 0 234.057 104.772 234.057 234.057 0 129.257-104.8 234.057-234.057 234.057zM370.628 206.828c-1.514-7.514-3.829-14.914-6.829-22-2.914-6.914-6.543-13.628-10.772-19.885-4.2-6.2-9-12-14.286-17.315-5.286-5.286-11.122-10.086-17.315-14.257-6.257-4.228-12.943-7.857-19.885-10.8-7.057-3-14.457-5.286-22-6.829-7.685-1.572-15.628-2.372-23.543-2.372-7.943 0-15.857 0.8-23.572 2.372-7.514 1.543-14.915 3.829-22 6.829-6.915 2.943-13.629 6.572-19.886 10.8-6.179 4.171-12 8.971-17.315 14.257-5.293 5.315-10.085 11.115-14.257 17.315-4.228 6.257-7.857 12.971-10.8 19.885-3 7.086-5.286 14.486-6.828 22-1.571 7.685-2.371 15.628-2.371 23.572 0 7.915 0.8 15.857 2.371 23.543 1.543 7.514 3.828 14.943 6.828 22 2.943 6.943 6.571 13.629 10.8 19.886 4.172 6.2 8.964 12.029 14.257 17.315 5.315 5.286 11.136 10.086 17.315 14.286 6.257 4.228 12.971 7.857 19.886 10.8 7.085 2.971 14.486 5.286 22 6.8 7.714 1.6 15.629 2.4 23.572 2.4 7.914 0 15.857-0.8 23.543-2.4 7.543-1.514 14.943-3.829 22-6.8 6.943-2.943 13.628-6.572 19.885-10.8 6.193-4.2 12.029-9 17.315-14.286s10.086-11.115 14.286-17.315c4.228-6.257 7.857-12.943 10.772-19.886 3-7.057 5.315-14.486 6.829-22 1.6-7.685 2.4-15.629 2.4-23.543 0-7.943-0.8-15.886-2.4-23.572zM292.4 218.885c13.086-36.029 18.428-65.343 19.428-71.371 22.457 15.143 38.4 39.171 42.829 67-2.065 0.685-30 9.543-62.257 4.372z" />
<glyph unicode="&#x77;" d="M256 464.457c-129.272 0-234.057-104.8-234.057-234.057 0-129.286 104.785-234.057 234.057-234.057s234.057 104.772 234.057 234.057c0 129.257-104.786 234.057-234.057 234.057zM190.886 178.486c-28.672 0-51.915 23.257-51.915 51.915s23.243 51.915 51.915 51.915c28.657 0 51.915-23.257 51.915-51.915s-23.257-51.915-51.915-51.915zM321.115 178.486c-28.657 0-51.9 23.257-51.9 51.915s23.243 51.915 51.9 51.915c28.671 0 51.914-23.257 51.914-51.915s-23.243-51.915-51.914-51.915z" />
<glyph unicode="&#x78;" d="M256 464.457c-129.264 0-234.057-104.8-234.057-234.057 0-129.286 104.793-234.057 234.057-234.057s234.057 104.772 234.057 234.057c0 129.257-104.793 234.057-234.057 234.057zM256 279.629c-6.835 0-12.379-5.572-12.379-12.4l-0.057-74.629c-0.415-28.572-23.614-51.572-52.272-51.572-28.886 0-52.322 23.428-52.322 52.315 0 0.372 0 32.457 0 32.457h40.050v-32.029c0-6.857 5.543-12.4 12.379-12.4 6.85 0 12.393 5.543 12.393 12.4v75.572c1.007 28 23.957 50.428 52.207 50.428 28.365 0 51.379-22.6 52.221-50.743v-16.543l-23.843-7.114-15.986 7.457v14.4c0 6.829-5.543 12.4-12.393 12.4zM373.029 193.343c0-28.885-23.421-52.315-52.307-52.315-28.743 0-52.086 23.171-52.329 51.857v32.6l15.986-7.457 23.843 7.115v-32.857c0-6.857 5.543-12.4 12.378-12.4 6.85 0 12.393 5.543 12.393 12.4v33.515h40.036c0 0 0-32.086 0-32.457z" />
<glyph unicode="&#x79;" d="M256 464.457c-129.264 0-234.057-104.8-234.057-234.057 0-129.286 104.793-234.057 234.057-234.057 129.257 0 234.057 104.772 234.057 234.057 0 129.257-104.8 234.057-234.057 234.057zM371.857 283.486c-13.086-73.657-86.143-136.057-108.128-150.315s-42.043 5.714-49.3 20.8c-8.343 17.228-33.286 110.515-39.815 118.228s-26.143-7.714-26.143-7.714l-9.5 12.457c0 0 39.8 47.543 70.085 53.486 32.129 6.314 32.085-49.315 39.815-80.2 7.471-29.857 12.5-46.943 19.014-46.943 6.543 0 19.014 16.657 32.671 42.172 13.671 25.572-0.586 48.143-27.329 32.086 10.685 64.171 111.7 79.6 98.628 5.943z" />
<glyph unicode="&#x7a;" d="M253.929 266.057c1.815 0 3.243 0.486 4.3 1.486 1.072 1 1.615 2.4 1.615 4.143v35.543c0 1.428-0.543 2.571-1.628 3.457s-2.514 1.314-4.286 1.314c-1.614 0-2.943-0.428-3.971-1.314-1-0.886-1.514-2.029-1.514-3.457v-35.543c0-1.8 0.486-3.172 1.429-4.143 0.943-1.029 2.3-1.486 4.057-1.486zM283.357 200.4c-1.843 0-3.657-0.457-5.471-1.4-1.772-0.943-3.478-2.343-5.072-4.115v25.857h-11.971v-80.315h11.971v4.543c1.543-1.829 3.257-3.143 5.072-4 1.8-0.885 3.85-1.286 6.185-1.286 3.5 0 6.193 1.086 8.036 3.343 1.878 2.257 2.793 5.457 2.793 9.628v32.885c0 4.857-0.978 8.543-2.957 11.086-1.971 2.514-4.829 3.772-8.586 3.772zM282.7 154.314c0-1.914-0.35-3.257-1.014-4.086-0.685-0.857-1.743-1.286-3.2-1.286-1.007 0-1.943 0.228-2.865 0.657-0.907 0.4-1.85 1.143-2.807 2.086v36.914c0.815 0.829 1.607 1.428 2.443 1.829 0.829 0.372 1.671 0.572 2.514 0.572 1.586 0 2.829-0.514 3.685-1.543 0.843-1.029 1.243-2.543 1.243-4.572v-30.572zM171.971 209.057h13.8v-68.628h13.343v68.629h13.815v11.685h-40.957zM240.1 154.685c-1.114-1.286-2.328-2.343-3.672-3.2-1.328-0.829-2.443-1.228-3.3-1.228-1.1 0-1.915 0.286-2.429 0.943-0.471 0.628-0.728 1.628-0.728 3.029v45.457h-11.843v-49.543c0-3.543 0.7-6.143 2.065-7.914 1.407-1.8 3.45-2.657 6.207-2.657 2.214 0 4.514 0.6 6.871 1.885 2.371 1.257 4.643 3.086 6.828 5.486v-6.514h11.843v59.257h-11.843v-45zM256 464.457c-129.257 0-234.057-104.8-234.057-234.057 0-129.286 104.8-234.057 234.057-234.057 129.272 0 234.057 104.772 234.057 234.057 0 129.257-104.786 234.057-234.057 234.057zM284.228 321.657h13.315v-50.029c0-1.543 0.315-2.657 0.857-3.343 0.543-0.714 1.471-1.057 2.714-1.057 0.971 0 2.228 0.457 3.728 1.371 1.486 0.943 2.857 2.086 4.1 3.514v49.543h13.343v-65.257h-13.343v7.228c-2.443-2.657-5-4.714-7.671-6.086-2.657-1.371-5.228-2.114-7.728-2.114-3.1 0-5.4 1-6.971 2.971-1.557 1.915-2.343 4.829-2.343 8.714v54.543zM234.728 306.743c0 5.057 1.8 9.085 5.371 12.057 3.585 3 8.429 4.486 14.486 4.486 5.515 0 10.028-1.571 13.571-4.714 3.5-3.143 5.257-7.257 5.257-12.2v-33.714c0-5.6-1.714-9.943-5.157-13.143-3.471-3.172-8.228-4.772-14.286-4.772-5.828 0-10.5 1.657-14 4.943-3.486 3.285-5.243 7.685-5.243 13.228v33.829zM198.415 344.857l9.743-35.371h0.943l9.3 35.371h15.243l-17.471-51.771v-36.686h-15v35.057l-17.871 53.4h15.114zM373.029 158.685c0-23.6-19.157-42.772-42.757-42.772h-148.557c-23.614 0-42.743 19.171-42.743 42.772v34.372c0 23.6 19.129 42.772 42.743 42.772h148.557c23.6 0 42.757-19.172 42.757-42.772v-34.371zM319.1 201.143c-5.3 0-9.6-1.6-12.964-4.829-3.35-3.228-5.022-7.457-5.022-12.572v-26.6c0-5.714 1.543-10.2 4.572-13.428 3.043-3.286 7.228-4.885 12.529-4.885 5.9 0 10.343 1.514 13.286 4.572 3 3.086 4.464 7.657 4.464 13.743v3.029h-12.185v-2.685c0-3.486-0.407-5.743-1.164-6.772-0.786-1.029-2.157-1.543-4.128-1.543-1.885 0-3.236 0.6-4.014 1.8-0.772 1.228-1.157 3.4-1.157 6.514v11.143h22.65v15.115c0 5.628-1.45 9.914-4.365 12.914-2.9 3-7.072 4.486-12.5 4.486zM323.779 177.857h-10.464v5.971c0 2.486 0.4 4.286 1.228 5.315 0.829 1.115 2.171 1.657 4.057 1.657 1.8 0 3.143-0.543 3.935-1.657 0.822-1.029 1.243-2.829 1.243-5.315v-5.971z" />
<glyph unicode="&#xe619;" d="M256 476.16c-135.731 0-245.76-110.029-245.76-245.76s110.029-245.76 245.76-245.76 245.76 110.029 245.76 245.76-110.029 245.76-245.76 245.76zM314.189 306.329h-36.941c-4.352 0-9.216-5.76-9.216-13.415v-26.675h46.183v-38.042h-46.183v-114.202h-43.623v114.202h-39.526v38.016h39.526v22.375c0 32.103 22.272 58.189 52.839 58.189h36.941v-40.448z" />
<glyph unicode="&#xe61a;" d="M232.883 299.904c-6.169 21.76-16.154 28.185-31.693 28.185-1.664 0-3.353-0.231-4.966-0.666-6.758-1.92-12.083-7.552-15.053-15.872-3.047-8.448-3.251-17.28-0.589-27.315 4.71-17.92 17.459-30.95 30.336-30.95 1.664 0 3.353 0.231 4.966 0.666 14.003 3.968 22.81 25.421 16.999 45.952zM256 476.16c-135.731 0-245.76-110.029-245.76-245.76s110.029-245.76 245.76-245.76c135.757 0 245.76 110.029 245.76 245.76s-110.003 245.76-245.76 245.76zM241.843 124.877c-15.463-7.501-32.077-8.294-38.502-8.294-1.229 0-1.92 0.026-2.023 0.026 0 0-0.487 0-1.255 0-10.035 0-59.981 2.304-59.981 47.795 0 44.697 54.375 48.179 71.040 48.179h0.461c-9.6 12.851-7.603 25.805-7.603 25.805-0.845-0.051-2.099-0.102-3.609-0.102-6.298 0-18.406 0.999-28.8 7.731-12.723 8.167-19.174 22.118-19.174 41.446 0 54.553 59.546 56.755 60.16 56.781h59.469v-1.306c0-6.656-11.93-7.936-20.096-9.063-2.765-0.384-8.294-0.947-9.881-1.741 15.078-8.038 17.511-20.711 17.511-39.552 0-21.427-8.397-32.768-17.305-40.755-5.504-4.915-9.856-8.832-9.856-14.003 0-5.069 5.939-10.291 12.851-16.359 11.289-9.933 26.777-23.526 26.777-46.361 0-23.603-10.163-40.499-30.183-50.227zM371.891 230.631h-38.81v-38.81h-24.576v38.81h-38.81v24.576h38.81v38.784h24.576v-38.809h38.81v-24.55zM210.509 200.934c-1.331 0-2.662-0.051-3.994-0.154-11.367-0.819-21.863-5.094-29.465-12.007-7.526-6.81-11.341-15.385-10.803-24.089 1.126-18.176 20.685-28.851 44.391-27.136 23.373 1.69 38.938 15.13 37.786 33.331-1.101 17.127-15.975 30.055-37.913 30.055z" />
</font>
</defs>
</svg>
